<svg width="65" height="10" viewBox="0 0 65 10" fill="none" xmlns="http://www.w3.org/2000/svg">
<path d="M10.1055 1.03125C10.6797 1.03125 10.9668 1.18945 10.9668 1.50586C10.9668 1.7793 10.75 2.17969 10.3164 2.70703C10.2617 2.77344 10.1445 2.88672 9.96484 3.04688L9.29688 3.64453L7.30469 5.30273C7.40234 5.47852 7.56836 5.68945 7.80273 5.93555C8.03711 6.18164 8.24609 6.38281 8.42969 6.53906C8.82812 6.89062 9.07031 7.06641 9.15625 7.06641C9.24609 7.06641 9.35742 7.0332 9.49023 6.9668C9.62695 6.90039 9.7793 6.81445 9.94727 6.70898C10.1152 6.59961 10.293 6.47656 10.4805 6.33984L11.957 5.2207C12.0977 5.11133 12.2383 5.05664 12.3789 5.05664C12.6719 5.05664 12.8184 5.17773 12.8184 5.41992C12.8184 5.73633 12.6641 6.10547 12.3555 6.52734C12.2617 6.65234 12.1719 6.75781 12.0859 6.84375L11.7168 7.18359C10.6465 8.16406 9.69531 8.8125 8.86328 9.12891C8.60547 9.23047 8.375 9.28125 8.17188 9.28125C7.96875 9.28125 7.77344 9.24609 7.58594 9.17578C7.39844 9.10547 7.21289 9.01172 7.0293 8.89453C6.8457 8.77734 6.66602 8.64258 6.49023 8.49023C6.31836 8.33398 6.1543 8.16992 5.99805 7.99805C5.71289 7.68555 5.44727 7.3418 5.20117 6.9668L4.12305 7.76953C2.97461 8.60547 2.27344 9.02344 2.01953 9.02344C1.74609 9.02344 1.48242 8.94531 1.22852 8.78906C1.1543 8.74609 1.10352 8.69922 1.07617 8.64844C0.931641 8.50391 0.859375 8.20703 0.859375 7.75781C0.859375 7.30859 0.896484 6.9082 0.970703 6.55664C1.04102 6.20117 1.13672 5.84375 1.25781 5.48438C1.37891 5.12109 1.51953 4.76172 1.67969 4.40625C1.83984 4.05078 2.00781 3.71094 2.18359 3.38672C2.35938 3.0625 2.53906 2.76172 2.72266 2.48438C2.90625 2.20312 3.08203 1.96094 3.25 1.75781C3.60156 1.32031 3.86523 1.10156 4.04102 1.10156C4.2207 1.10156 4.40039 1.11719 4.58008 1.14844C4.75977 1.17969 4.92188 1.22656 5.06641 1.28906C5.39453 1.4375 5.55859 1.63867 5.55859 1.89258C5.55859 2.04492 5.49805 2.20898 5.37695 2.38477C5.25586 2.56055 5.12109 2.76758 4.97266 3.00586C4.57422 3.67383 4.29688 4.14844 4.14062 4.42969L3.74805 5.16797C3.51758 5.62109 3.40234 5.90039 3.40234 6.00586C3.40234 6.0957 3.47656 6.14062 3.625 6.14062C3.68359 6.14062 3.89844 5.98047 4.26953 5.66016L5.25391 4.80469L8.33008 1.99219C8.47852 1.85547 8.56445 1.77539 8.58789 1.75195C8.82617 1.50977 9.08008 1.33008 9.34961 1.21289C9.62305 1.0918 9.875 1.03125 10.1055 1.03125ZM21.6665 4.59961C21.7915 4.59961 21.854 4.70508 21.854 4.91602C21.854 5.2793 21.6001 5.75 21.0923 6.32812L20.7583 6.66797C19.7466 7.67969 18.7934 8.35352 17.8989 8.68945C17.3442 8.89648 16.9458 8.88672 16.7036 8.66016C16.5044 8.46875 16.3462 8.16016 16.229 7.73438L16.0884 7.22461L14.8403 7.99219L14.1196 8.40234C13.2602 8.87109 12.6157 9.10547 12.186 9.10547C11.6352 9.10547 11.1763 8.89258 10.8091 8.4668C10.4575 8.06445 10.2817 7.59766 10.2817 7.06641C10.2817 6.54297 10.4907 6.07617 10.9087 5.66602C11.5063 5.08008 12.4497 4.54297 13.7388 4.05469C14.9575 3.59766 15.9419 3.36914 16.6919 3.36914C16.9458 3.36914 17.0727 3.49414 17.0727 3.74414C17.0727 3.91602 17.0395 4.04492 16.9731 4.13086C16.9067 4.2168 16.77 4.30469 16.563 4.39453L15.8247 4.71094C14.7309 5.16797 13.9302 5.64258 13.4223 6.13477C13.2778 6.27148 13.2055 6.4043 13.2055 6.5332C13.2055 6.66211 13.3091 6.72656 13.5161 6.72656C13.7192 6.72656 14.1919 6.50781 14.9341 6.07031L15.4204 5.7832C16.1743 5.33008 16.8052 5.10352 17.313 5.10352C17.7427 5.10352 18.0278 5.29297 18.1684 5.67188C18.2036 5.77344 18.2368 5.87695 18.268 5.98242C18.2993 6.08398 18.3305 6.17578 18.3618 6.25781C18.4321 6.44922 18.4946 6.54492 18.5493 6.54492C18.6079 6.54492 18.6899 6.51758 18.7954 6.46289C18.9009 6.4043 19.0161 6.33203 19.1411 6.24609C19.27 6.15625 19.4028 6.05859 19.5395 5.95312L20.2485 5.38477C20.8774 4.86133 21.3501 4.59961 21.6665 4.59961ZM19.6572 7.06641C19.583 7.06641 19.5107 7.04883 19.4404 7.01367C19.3662 6.97852 19.2978 6.92188 19.2353 6.84375C19.0986 6.67188 19.0302 6.4375 19.0302 6.14062C19.0302 5.82422 19.2197 5.42969 19.5986 4.95703C19.9658 4.5 20.3935 4.10547 20.8818 3.77344C21.4052 3.41406 21.8545 3.23438 22.2295 3.23438C22.5615 3.23438 22.7861 3.32812 22.9033 3.51562L22.9853 3.64453C23.0478 3.74219 23.1103 3.79102 23.1728 3.79102C23.2353 3.79102 23.333 3.78516 23.4658 3.77344L24.2978 3.71484C24.4267 3.70312 24.5283 3.69727 24.6025 3.69727C24.6767 3.69727 24.7607 3.72461 24.8545 3.7793C24.9521 3.83008 25.038 3.89844 25.1123 3.98438C25.2763 4.17969 25.3584 4.39453 25.3584 4.62891C25.3584 4.87109 25.0908 5.25195 24.5556 5.77148L24.1689 6.1582C23.8916 6.44336 23.7529 6.62305 23.7529 6.69727C23.7529 6.77148 23.788 6.83789 23.8584 6.89648C23.9287 6.95117 24.0048 6.97852 24.0869 6.97852C24.1689 6.97852 24.2607 6.95703 24.3623 6.91406C24.4677 6.86719 24.5966 6.80078 24.749 6.71484C24.9013 6.625 25.0752 6.51758 25.2705 6.39258C25.8056 6.04102 26.163 5.79883 26.3427 5.66602L26.8291 5.32031C27.1611 5.08594 27.3974 4.96875 27.538 4.96875C27.6787 4.96875 27.7939 5 27.8838 5.0625C27.9736 5.12109 28.0185 5.22461 28.0185 5.37305C28.0185 5.52148 27.9423 5.7207 27.79 5.9707C27.6377 6.2207 27.4716 6.4375 27.292 6.62109C27.1162 6.80469 26.9443 6.97461 26.7763 7.13086C26.6084 7.28711 26.4091 7.45703 26.1787 7.64062C25.9521 7.82031 25.7002 8.00391 25.4228 8.19141C25.1455 8.375 24.8525 8.54102 24.5439 8.68945C23.8447 9.0293 23.2021 9.19922 22.6162 9.19922C21.7607 9.19922 21.2392 8.97852 21.0517 8.53711C20.9931 8.4043 20.9638 8.25586 20.9638 8.0918C20.9638 7.92773 20.9951 7.75195 21.0576 7.56445C21.1201 7.37305 21.2021 7.18359 21.3037 6.99609C21.5068 6.625 21.747 6.29688 22.0244 6.01172C22.2588 5.76562 22.3759 5.61914 22.3759 5.57227C22.3759 5.49805 22.333 5.45117 22.247 5.43164C22.165 5.41211 22.042 5.40234 21.8779 5.40234C21.8076 5.40234 21.6572 5.50391 21.4267 5.70703L20.8525 6.23438C20.2431 6.78906 19.8447 7.06641 19.6572 7.06641ZM31.558 2.22656C31.4448 2.32031 31.3217 2.39844 31.1889 2.46094C31.0561 2.51953 30.9077 2.54883 30.7436 2.54883C30.5795 2.54883 30.4213 2.52148 30.269 2.4668C30.1166 2.41211 29.9838 2.33594 29.8705 2.23828C29.6245 2.02734 29.5014 1.75781 29.5014 1.42969C29.5014 0.925781 29.9233 0.550781 30.767 0.304688C31.0522 0.21875 31.2866 0.175781 31.4702 0.175781C31.6537 0.175781 31.7905 0.197266 31.8803 0.240234C31.9741 0.279297 32.0502 0.332031 32.1088 0.398438C32.226 0.53125 32.2846 0.667969 32.2846 0.808594C32.2846 0.945312 32.267 1.07031 32.2319 1.18359C32.2006 1.29687 32.1537 1.41406 32.0912 1.53516C32.0287 1.65625 31.9526 1.77734 31.8627 1.89844C31.7729 2.01953 31.6713 2.12891 31.558 2.22656ZM30.0815 8.67773C29.7846 8.83008 29.4955 8.95117 29.2143 9.04102C28.933 9.13477 28.6557 9.18164 28.3823 9.18164C28.1127 9.18164 27.8315 9.11719 27.5385 8.98828C27.2495 8.85547 26.9916 8.67969 26.7651 8.46094C26.2612 7.97266 26.0092 7.42969 26.0092 6.83203C26.0092 6.28125 26.1733 5.72266 26.5014 5.15625C26.8022 4.64453 27.185 4.21484 27.6498 3.86719C28.1147 3.51953 28.5463 3.3457 28.9448 3.3457C29.5151 3.3457 29.8198 3.50586 29.8588 3.82617C29.8705 3.92383 29.8764 4.03711 29.8764 4.16602C29.8764 4.29492 29.8452 4.44336 29.7827 4.61133C29.7241 4.77539 29.6459 4.94141 29.5483 5.10938C29.4545 5.27344 29.3491 5.43555 29.2319 5.5957C29.1186 5.75195 29.0092 5.89453 28.9037 6.02344C28.7006 6.26953 28.5385 6.44727 28.4174 6.55664C28.4174 6.68945 28.517 6.82617 28.7162 6.9668C28.9037 7.09961 29.062 7.16602 29.1909 7.16602C29.3237 7.16602 29.478 7.13477 29.6537 7.07227C29.8334 7.00977 30.017 6.92578 30.2045 6.82031C30.3959 6.71484 30.5893 6.59375 30.7846 6.45703C30.9838 6.32031 31.1791 6.17969 31.3705 6.03516L32.4428 5.19727C32.8686 4.88867 33.2143 4.73438 33.4799 4.73438C33.5854 4.73438 33.6655 4.77344 33.7202 4.85156C33.7787 4.92578 33.808 5.01367 33.808 5.11523C33.808 5.2168 33.7573 5.35742 33.6557 5.53711C33.5541 5.71289 33.4135 5.9082 33.2338 6.12305C33.058 6.33789 32.851 6.5625 32.6127 6.79688C32.3745 7.03125 32.1166 7.26172 31.8393 7.48828C31.562 7.71484 31.2729 7.93164 30.9721 8.13867C30.6752 8.3418 30.3784 8.52148 30.0815 8.67773ZM43.0956 5.78906C43.0956 6.36328 43.2753 6.65039 43.6347 6.65039C43.8847 6.65039 44.3163 6.43164 44.9296 5.99414C45.4843 5.58398 45.8144 5.32617 45.9198 5.2207C46.162 5.01758 46.4159 4.91602 46.6816 4.91602C46.7948 4.91602 46.8905 4.95508 46.9687 5.0332C47.0507 5.10742 47.0917 5.2207 47.0917 5.37305C47.0917 5.52539 47.0546 5.66406 46.9804 5.78906C46.9062 5.91406 46.8105 6.04297 46.6933 6.17578C46.58 6.30859 46.4374 6.45703 46.2655 6.62109C46.0976 6.78516 45.9042 6.95898 45.6855 7.14258C45.4667 7.32227 45.2265 7.50195 44.9648 7.68164C44.707 7.86133 44.4394 8.02344 44.162 8.16797C43.537 8.48828 42.9726 8.64844 42.4687 8.64844C41.8905 8.64844 41.498 8.38672 41.2909 7.86328C41.1698 7.5625 41.1093 7.20117 41.1093 6.7793L39.4042 7.93359C38.2362 8.75391 37.5409 9.18945 37.3183 9.24023C37.205 9.26758 37.0898 9.28125 36.9726 9.28125C36.8593 9.28125 36.7519 9.26953 36.6503 9.24609C36.5487 9.22656 36.4589 9.19141 36.3808 9.14062C36.2011 9.03516 36.1112 8.87891 36.1112 8.67188C36.1112 8.58984 36.1659 8.39062 36.2753 8.07422L36.7792 6.69141C36.9355 6.24609 37.0136 5.97852 37.0136 5.88867C37.0136 5.85742 36.9941 5.8418 36.955 5.8418C36.9159 5.8418 36.8437 5.88281 36.7382 5.96484C36.6327 6.04688 36.5058 6.15234 36.3573 6.28125L34.9628 7.5L34.2304 8.10938C33.4804 8.70703 32.8691 9.00586 32.3964 9.00586C32.1737 9.00586 31.9491 8.90625 31.7226 8.70703C31.4765 8.49609 31.3534 8.24219 31.3534 7.94531C31.3534 7.64844 31.3827 7.32422 31.4413 6.97266C31.496 6.62109 31.5761 6.2832 31.6816 5.95898C31.787 5.63086 31.9179 5.32422 32.0741 5.03906C32.2304 4.75 32.4081 4.5 32.6073 4.28906C33.037 3.82812 33.5429 3.59766 34.1249 3.59766C34.7109 3.59766 35.0038 3.76953 35.0038 4.11328C35.0038 4.26172 34.9237 4.48828 34.7636 4.79297C34.4237 5.46484 34.2538 5.82812 34.2538 5.88281C34.2538 5.93359 34.2695 5.97461 34.3007 6.00586C34.3359 6.0332 34.373 6.04688 34.412 6.04688C34.4941 6.04688 34.6112 5.98047 34.7636 5.84766C35.7675 4.96875 36.3984 4.42383 36.6562 4.21289C36.9179 4.00195 37.1698 3.81641 37.412 3.65625C37.9667 3.29297 38.4081 3.11133 38.7362 3.11133C39.0058 3.11133 39.2245 3.1543 39.3925 3.24023C39.6855 3.39258 39.832 3.56445 39.832 3.75586C39.832 3.94727 39.8046 4.16406 39.7499 4.40625C39.6991 4.64844 39.6425 4.88281 39.58 5.10938L39.4042 5.70703C39.3495 5.87891 39.3222 6.01172 39.3222 6.10547C39.3222 6.19531 39.3612 6.24023 39.4394 6.24023C39.6269 6.24023 39.9999 5.97461 40.5585 5.44336L41.1269 4.91016C41.7792 4.32422 42.2734 4.03125 42.6093 4.03125C42.7695 4.03125 42.912 4.09375 43.037 4.21875C43.2558 4.4375 43.3652 4.62891 43.3652 4.79297C43.3652 4.88281 43.3339 5.00391 43.2714 5.15625C43.1542 5.44141 43.0956 5.65234 43.0956 5.78906ZM59.0575 1.03125C59.6317 1.03125 59.9188 1.18945 59.9188 1.50586C59.9188 1.7793 59.702 2.17969 59.2684 2.70703C59.2137 2.77344 59.0966 2.88672 58.9169 3.04688L58.2489 3.64453L56.2567 5.30273C56.3544 5.47852 56.5204 5.68945 56.7548 5.93555C56.9891 6.18164 57.1981 6.38281 57.3817 6.53906C57.7802 6.89062 58.0223 7.06641 58.1083 7.06641C58.1981 7.06641 58.3095 7.0332 58.4423 6.9668C58.579 6.90039 58.7313 6.81445 58.8993 6.70898C59.0673 6.59961 59.245 6.47656 59.4325 6.33984L60.9091 5.2207C61.0497 5.11133 61.1903 5.05664 61.3309 5.05664C61.6239 5.05664 61.7704 5.17773 61.7704 5.41992C61.7704 5.73633 61.6161 6.10547 61.3075 6.52734C61.2137 6.65234 61.1239 6.75781 61.038 6.84375L60.6688 7.18359C59.5985 8.16406 58.6473 8.8125 57.8153 9.12891C57.5575 9.23047 57.327 9.28125 57.1239 9.28125C56.9208 9.28125 56.7255 9.24609 56.538 9.17578C56.3505 9.10547 56.1649 9.01172 55.9813 8.89453C55.7977 8.77734 55.618 8.64258 55.4423 8.49023C55.2704 8.33398 55.1063 8.16992 54.9501 7.99805C54.6649 7.68555 54.3993 7.3418 54.1532 6.9668L53.0751 7.76953C51.9266 8.60547 51.2255 9.02344 50.9716 9.02344C50.6981 9.02344 50.4345 8.94531 50.1805 8.78906C50.1063 8.74609 50.0555 8.69922 50.0282 8.64844C49.8837 8.50391 49.8114 8.20703 49.8114 7.75781C49.8114 7.30859 49.8485 6.9082 49.9227 6.55664C49.993 6.20117 50.0887 5.84375 50.2098 5.48438C50.3309 5.12109 50.4716 4.76172 50.6317 4.40625C50.7919 4.05078 50.9598 3.71094 51.1356 3.38672C51.3114 3.0625 51.4911 2.76172 51.6747 2.48438C51.8583 2.20312 52.0341 1.96094 52.202 1.75781C52.5536 1.32031 52.8173 1.10156 52.993 1.10156C53.1727 1.10156 53.3524 1.11719 53.5321 1.14844C53.7118 1.17969 53.8739 1.22656 54.0184 1.28906C54.3466 1.4375 54.5106 1.63867 54.5106 1.89258C54.5106 2.04492 54.4501 2.20898 54.329 2.38477C54.2079 2.56055 54.0731 2.76758 53.9247 3.00586C53.5262 3.67383 53.2489 4.14844 53.0927 4.42969L52.7001 5.16797C52.4696 5.62109 52.3544 5.90039 52.3544 6.00586C52.3544 6.0957 52.4286 6.14062 52.577 6.14062C52.6356 6.14062 52.8505 5.98047 53.2216 5.66016L54.2059 4.80469L57.2821 1.99219C57.4305 1.85547 57.5165 1.77539 57.5399 1.75195C57.7782 1.50977 58.0321 1.33008 58.3016 1.21289C58.5751 1.0918 58.827 1.03125 59.0575 1.03125ZM64.015 7.42969C64.0931 7.53516 64.1322 7.67969 64.1322 7.86328C64.1322 8.04297 64.0755 8.21484 63.9623 8.37891C63.849 8.53906 63.7025 8.67578 63.5228 8.78906C63.1556 9.02734 62.7396 9.14648 62.2748 9.14648C61.8255 9.14648 61.5072 9.03125 61.3197 8.80078C61.2181 8.67188 61.1673 8.51953 61.1673 8.34375C61.1673 7.99609 61.3451 7.6875 61.7005 7.41797C62.056 7.14844 62.4798 7.01367 62.972 7.01367C63.4681 7.01367 63.8158 7.15234 64.015 7.42969Z" fill="#57E0D0"/>
</svg>
